#!OML:ASF F:\VICON\USERDATA\INSTALL\rory3\rory3.ASF
:FULLY-SPECIFIED
:DEGREES
58
root 0.45158269702372356 17.87856105534574 21.28182115998019 -1.0451774150322308 -2.393441468822917 -7.138787346976311
lfemur -27.015674252402956 -0.8467018298901545 -11.077484774849971
ltibia 32.21023076907233
lfoot 1.3012666079622326 -5.276981782345853
ltoes -18.834167444015513
rfemur 0.7396229604446667 4.41755552762582 34.87147266961172
rtibia 25.828480654209017
rfoot -11.307642619922811 -6.458615575537398
rtoes 1.789783283171672
lowerback -1.0 1.688703017598237 6.368712947684046
upperback -0.25353885901960244 3.30422621811031 2.280145699153577
thorax -6.066976604081721 1.5120839449333658 -1.8446100481720935
lowerneck -16.964112253514166 -3.3691779515822633 -1.588053294524459
upperneck 20.69649939234928 -4.7289331041363845 1.781460303436899
head 9.363106393067168 -2.09339451160757 0.2448136168814454
lclavicle 1.6745128955682892e-15 -1.043961406772395e-16
lhumerus -33.59748945668752 5.465773645543704 82.24939607504541
lradius 24.659204952407524
lwrist 7.291207072016611
lhand -29.108926154864257 20.397409966909034
lfingers nan
lthumb -2.6236243511634467 49.48355059308731
rclavicle 1.7392924292457997e-15 -2.689275859166021e-17
rhumerus -26.49569636630656 -14.571408789796049 -80.25064620064207
rradius 31.677483665486267
rwrist -0.3545890690739948
rhand -18.429240171729493 -1.0
rfingers nan
rthumb 8.034938232809349 -6.547658150114422
59
root 0.4709370597489121 17.876562041075662 21.760452705774608 -0.6589602275695372 -2.7246640622035176 -7.345872469683635
lfemur -25.641202232566872 -4.120808492700588 -9.654802386986303
ltibia 21.560612536811547
lfoot 2.7859541047012746 -8.170472730954101
ltoes -20.70240940437453
rfemur 3.5249890807076962 4.566043684960395 34.98849479540954
rtibia 23.71638983473256
rfoot -11.686552336645146 -6.914278153249367
rtoes 0.024159954260928096
lowerback -1.0 1.8399034372829153 6.605605596789414
upperback -0.31662124549791804 3.501962583900328 2.272833353030073
thorax -6.03983055017368 1.6064464236966323 -1.9776147428605941
lowerneck -16.974230077393436 -3.4351082280495344 -1.5843288994112772
upperneck 20.64298546771669 -4.877728934318134 1.9285918036827754
head 9.330539795161041 -2.1367826804360828 0.2746728450661297
lclavicle 9.456656031402687e-16 -5.363770764442296e-16
lhumerus -34.162433070759604 6.514152161143546 81.67025131055
lradius 23.664521901602434
lwrist 6.656662188512057
lhand -29.16656331996171 19.94028865197127
lfingers nan
lthumb -2.6503130355233933 49.14246703466565
rclavicle 1.094762755406098e-15 -4.1342058935195556e-16
rhumerus -25.253525845293275 -13.604534072917556 -80.50418005831285
rradius 32.291556282029006
rwrist -0.7260280509121695
rhand -18.55277220296265 -1.0
rfingers nan
rthumb 7.929539797894577 -6.317179696279585
60
root 0.5008015482503521 17.82818242365073 22.476754562848466 -0.30198650487930534 -3.1478847310355773 -7.441826592284374
lfemur -23.888632069297266 -6.5766828753713025 -8.869733658652512
ltibia 13.954500534674004
lfoot 2.4966441526606014 -7.910485660799375
ltoes -21.084150318233313
rfemur 6.236220500951669 4.849609550626708 34.794218411203374
rtibia 22.327538674457962
rfoot -12.718243760810012 -6.8810104929192475
rtoes -1.931285428979824
lowerback -1.0 1.9940178888234197 6.7490424596615695
upperback -0.3549803880050735 3.6969195238783223 2.240700512421984
thorax -5.97664081069128 1.6934672831175224 -2.0770997914037217
lowerneck -16.950677393187576 -3.5115368464062064 -1.5946076172007078
upperneck 20.640545586063876 -5.041027783146378 2.071108289446031
head 9.316782532319793 -2.1901380532587886 0.3029746905750993
lclavicle 1.366074625861751e-15 -2.881764869829189e-16
lhumerus -34.66089065275407 7.60779700924199 81.01335553088376
lradius 22.61128993077777
lwrist 5.885944493950925
lhand -29.270464468580023 19.29543809533767
lfingers nan
lthumb -2.7416812324927804 48.60837768139266
rclavicle 1.6181419931735611e-15 -8.761724251662872e-17
rhumerus -24.152068088086683 -13.01042193012125 -80.65912756674186
rradius 32.5938278944747
rwrist -0.894248357525298
rhand -18.643626610050966 -1.0
rfingers nan
rthumb 7.851437471849465 -6.074595850210742
61
root 0.5496007156170906 17.772344167888562 23.99978545168227 -0.29357593441955787 -3.4707766309239485 -6.945055727651245
lfemur -23.07327165528043 -5.535257447780545 -10.327894148078915
ltibia 13.204737035788504
lfoot -1.5550245263578448 -6.650472826275808
ltoes -20.14077338293029
rfemur 7.7283517733172165 4.905888753996457 33.85119167132019
rtibia 23.63836887198813
rfoot -13.289808285568455 -6.134822224171637
rtoes -3.5616542786582404
lowerback -1.0 2.0962556023791215 6.343712470369836
upperback -0.36460176643947023 3.7653602230271135 2.1150387453067774
thorax -5.93346757802162 1.7363430083725182 -2.028633301674973
lowerneck -16.89128822624804 -3.5754710147421926 -1.61245667412175
upperneck 20.68574421683579 -5.179450503236338 2.2089493443398998
head 9.318567981858909 -2.236751251254375 0.335846809367901
lclavicle 1.5326604524551149e-15 -1.7231273089326052e-16
lhumerus -35.069839224854135 8.64921081501823 80.33720591355433
lradius 21.558254520300274
lwrist 5.033398345135487
lhand -29.386742288068003 18.647354884247743
lfingers nan
lthumb -2.8456971347347007 48.05592554706643
rclavicle 1.6759907329321998e-15 -5.0314482415866793e-17
rhumerus -23.35268349509222 -12.811463673064118 -80.7377080697946
rradius 32.597267679140366
rwrist -0.8245325918080755
rhand -18.66895698310003 -1.0
rfingers nan
rthumb 7.787754487023668 -5.914514540073933
62
root 0.592226320278135 17.702199781821882 24.9471964525746 -0.6814059751459176 -3.757574845720483 -6.4496860832273715
lfemur -24.145996671511625 -3.773864496722185 -12.489500206672563
ltibia 18.535517610598607
lfoot -3.0444782499355387 -4.748392441534742
ltoes -14.852454161099004
rfemur 8.190402974876504 4.625940482024115 33.04251748403116
rtibia 27.382761090841257
rfoot -12.684292318295153 -5.010805700455107
rtoes -4.133239121332046
lowerback -1.0 2.1822922246105776 5.897906678932957
upperback -0.3474571251059342 3.7782310281653055 1.9804234580240425
thorax -5.912080044326346 1.750440206515277 -1.9423540093635288
lowerneck -16.770286537232355 -3.621641003158279 -1.6364917274643063
upperneck 20.768944697243366 -5.287520147976247 2.3352489998344677
head 9.327646659020113 -2.277510269166052 0.37490996169456003
lclavicle 1.572728919723538e-15 -1.145688551149939e-16
lhumerus -35.3915400405049 9.546952319313393 79.69692544793669
lradius 20.597038094097066
lwrist 4.15207739638614
lhand -29.338439980663427 18.43843466802348
lfingers nan
lthumb -2.7940323378501977 47.912095998478456
rclavicle 1.7259921647342382e-15 8.082264759846618e-18
rhumerus -23.023309710222627 -13.022029165946329 -80.728692556684
rradius 32.351545121360736
rwrist -0.5259976511094533
rhand -18.617212174562738 -1.0
rfingers nan
rthumb 7.747363407597982 -5.9037136021908605
